<svg width="671" height="909" viewBox="0 0 671 909" fill="none" xmlns="http://www.w3.org/2000/svg">
<path opacity="0.12" d="M667.857 390.915C681.98 315.309 641.96 233.8 567.313 194.212C487.882 152.96 387.609 161.998 296.706 177.192C205.803 192.386 110.981 212.203 22.4888 188.362C-83.9745 159.909 -155.715 74.2176 -254.943 31.097C-390.879 -28.9484 -567.172 2.00717 -677.18 93.9709C-787.188 185.935 -831.48 328.378 -804.696 458.865C-778.543 589.036 -687.094 705.819 -567.027 787.183C-433.273 878.33 -256.486 928.839 -89.16 899.977C2.7398 884.55 88.6516 842.71 153.233 783.599C203.903 736.543 230.717 670.953 285.074 627.208C342.253 580.486 418.253 591.484 487.664 570.645C578.098 543.509 652.873 474.139 667.857 390.915Z" fill="url(#paint0_linear_51_305)"/>
<defs>
<linearGradient id="paint0_linear_51_305" x1="754.723" y1="288.064" x2="-1001.6" y2="629.406" gradientUnits="userSpaceOnUse">
<stop stop-color="white" stop-opacity="0"/>
<stop offset="1" stop-color="#E7E7E7"/>
</linearGradient>
</defs>
</svg>
