<svg width="566" height="729" viewBox="0 0 566 729" fill="none" xmlns="http://www.w3.org/2000/svg">
<path opacity="0.12" d="M0.529602 370.828C-4.28705 297.456 24.1312 224.504 70.371 162.871C109.386 110.463 173.929 35.4141 242.807 10.6773C329.507 -20.3485 409.944 30.3829 493.754 40.4453C568.894 49.2499 646.442 21.159 719.655 37.9297C772.156 49.6692 815.506 84.4684 841.516 125.557C868.007 166.645 878.604 214.441 881.976 261.399C888.237 352.38 865.599 444.619 819.359 525.957C796.239 566.626 763.968 598.491 735.068 635.805C705.686 673.539 685.457 705.823 631.992 721.336C584.307 735.172 529.879 729.302 487.974 705.404C450.404 684.021 423.913 650.48 387.306 627.839C319.873 586.332 229.802 590.105 153.699 568.723C55.4394 541.051 6.30957 456.778 0.529602 370.828Z" fill="url(#paint0_linear_24_6)"/>
<defs>
<linearGradient id="paint0_linear_24_6" x1="0" y1="728.696" x2="869.896" y2="-14.5817" gradientUnits="userSpaceOnUse">
<stop stop-color="white" stop-opacity="0"/>
<stop offset="1" stop-color="#E2E2E2"/>
</linearGradient>
</defs>
</svg>
