<svg width="978" height="909" viewBox="0 0 978 909" fill="none" xmlns="http://www.w3.org/2000/svg">
<path opacity="0.12" d="M2.8657 391.216C-11.257 315.61 28.7624 234.101 103.41 194.513C182.841 153.261 283.113 162.299 374.017 177.493C464.92 192.687 559.741 212.504 648.234 188.663C754.697 160.21 826.438 74.5186 925.666 31.398C1061.6 -28.6473 1237.89 2.3082 1347.9 94.2719C1457.91 186.236 1502.2 328.679 1475.42 459.166C1449.27 589.337 1357.82 706.12 1237.75 787.484C1104 878.631 927.208 929.14 759.883 900.278C667.983 884.851 582.071 843.011 517.489 783.9C466.82 736.844 440.006 671.254 385.649 627.509C328.469 580.787 252.47 591.785 183.059 570.947C92.6244 543.81 17.8493 474.44 2.8657 391.216Z" fill="url(#paint0_linear_24_4)"/>
<defs>
<linearGradient id="paint0_linear_24_4" x1="-84" y1="288.365" x2="1672.32" y2="629.707" gradientUnits="userSpaceOnUse">
<stop stop-color="white" stop-opacity="0"/>
<stop offset="1" stop-color="#E7E7E7"/>
</linearGradient>
</defs>
</svg>
