<svg width="18" height="22" viewBox="0 0 18 22" fill="none" xmlns="http://www.w3.org/2000/svg">
<path d="M9 0.238281C4.038 0.238281 0 3.76606 0 8.10334C0 14.2661 8.154 20.6293 8.501 20.8965C8.644 21.0067 8.822 21.0614 9 21.0614C9.178 21.0614 9.356 21.0067 9.499 20.8974C9.846 20.6293 18 14.2661 18 8.10334C18 3.76606 13.962 0.238281 9 0.238281ZM9 12.3851C6.243 12.3851 4 10.439 4 8.04695C4 5.65489 6.243 3.7088 9 3.7088C11.757 3.7088 14 5.65489 14 8.04695C14 10.439 11.757 12.3851 9 12.3851Z" fill="white"/>
</svg>
