<svg width="18" height="17" viewBox="0 0 18 17" fill="none" xmlns="http://www.w3.org/2000/svg">
<path d="M16.5789 10.858C15.4686 10.858 14.3811 10.7076 13.3503 10.4125C12.8473 10.2621 12.276 10.378 11.9454 10.6706L9.9019 12.0096C7.55716 10.9238 6.05653 9.62263 4.82212 7.60306L6.32369 5.872C6.70169 5.54404 6.83718 5.064 6.67518 4.6144C6.33222 3.71434 6.15791 2.76991 6.15791 1.80821C6.15791 1.12843 5.52035 0.575256 4.73686 0.575256H1.42105C0.637565 0.575256 0 1.12843 0 1.80821C0 9.73934 7.4378 16.1926 16.5789 16.1926C17.3624 16.1926 18 15.6394 18 14.9596V12.091C18 11.4112 17.3624 10.858 16.5789 10.858Z" fill="white"/>
</svg>
